<?xml version="1.0" encoding="UTF-8" standalone="no"?>
<svg
   xmlns:dc="http://purl.org/dc/elements/1.1/"
   xmlns:cc="http://creativecommons.org/ns#"
   xmlns:rdf="http://www.w3.org/1999/02/22-rdf-syntax-ns#"
   xmlns:svg="http://www.w3.org/2000/svg"
   xmlns="http://www.w3.org/2000/svg"
   xmlns:sodipodi="http://sodipodi.sourceforge.net/DTD/sodipodi-0.dtd"
   xmlns:inkscape="http://www.inkscape.org/namespaces/inkscape"
   viewBox="0 0 112.49999 154.01851"
   height="43.467449mm"
   width="31.75mm"
   xml:space="preserve"
   id="svg2"
   version="1.1"
   inkscape:version="0.92.3 (2405546, 2018-03-11)"
   sodipodi:docname="technocopia-pin.svg"><sodipodi:namedview
     pagecolor="#ffffff"
     bordercolor="#666666"
     borderopacity="1"
     objecttolerance="10"
     gridtolerance="10"
     guidetolerance="10"
     inkscape:pageopacity="0"
     inkscape:pageshadow="2"
     inkscape:window-width="1680"
     inkscape:window-height="975"
     id="namedview70"
     showgrid="false"
     inkscape:zoom="4.6354776"
     inkscape:cx="135.24104"
     inkscape:cy="68.339125"
     inkscape:window-x="0"
     inkscape:window-y="0"
     inkscape:window-maximized="1"
     inkscape:current-layer="layer2"
     fit-margin-top="0"
     fit-margin-left="0"
     fit-margin-right="0"
     fit-margin-bottom="0"
     units="mm"
     inkscape:document-units="mm" /><metadata
     id="metadata8"><rdf:RDF><cc:Work
         rdf:about=""><dc:format>image/svg+xml</dc:format><dc:type
           rdf:resource="http://purl.org/dc/dcmitype/StillImage" /><dc:title /></cc:Work></rdf:RDF></metadata><defs
     id="defs6"><clipPath
       id="clipPath18"
       clipPathUnits="userSpaceOnUse"><path
         id="path16"
         d="M 0,864 H 864 V 0 H 0 Z"
         inkscape:connector-curvature="0" /></clipPath></defs><g
     inkscape:groupmode="layer"
     id="layer2"
     inkscape:label="base"
     style="display:inline"
     transform="translate(-362.49499,-158.9005)"><path
       style="fill:#bfbfbf;fill-opacity:1;fill-rule:evenodd;stroke:none;stroke-width:0.90000004;stroke-miterlimit:4;stroke-dasharray:none;stroke-opacity:1"
       d="m 417.90474,158.90082 c -1.442,0.0201 -2.68125,1.02834 -2.9944,2.43606 -0.17479,0.78564 -0.0916,1.90743 0.34616,2.77924 -0.20694,0.25456 -0.42003,0.51114 -0.73356,0.88131 -0.80501,0.95041 -2.03268,2.73226 -1.89921,4.96319 0.11775,1.96722 1.19954,3.18141 1.66299,3.78681 0.11337,0.14813 0.11312,0.15299 0.16578,0.22806 -0.17537,0.30492 -0.51006,1.10299 -1.13515,1.85368 -0.96888,1.16356 -2.28015,2.4009 -3.09447,3.06055 -1.43928,1.16591 -3.61151,2.54785 -5.76075,4.03892 -2.14923,1.49107 -4.30636,3.0432 -5.87929,5.18738 l -4.4e-4,4.4e-4 c -1.60246,2.18496 -2.42345,4.808 -2.32956,7.45166 0.0498,1.40212 0.4116,2.85022 1.10294,4.15875 -0.21443,0.15431 -0.38295,0.27574 -0.61804,0.44839 -1.24696,0.91575 -2.84148,2.25613 -3.65969,4.43448 -0.32574,0.86724 -0.52936,1.73157 -0.67215,2.58768 -0.26815,0.15531 -0.53534,0.28982 -0.82161,0.45054 -0.0217,0.0125 -0.0434,0.0246 -0.0649,0.0374 -15.62538,9.27229 -29.09998,25.66413 -29.02408,49.26036 0.0611,19.09763 9.15763,34.06523 20.88008,43.65123 11.93457,9.75952 30.17446,15.58676 50.20095,10.36402 1.29755,-0.31691 2.43023,-0.66958 3.47587,-1.04923 0.25175,-0.0385 0.49783,-0.10775 0.73271,-0.20617 2.08692,-0.87802 4.2262,-1.81313 6.33497,-2.85052 0.77559,-0.44778 2.06157,-1.19978 2.49309,-1.41581 2.96111,-0.41563 3.70925,-0.80447 4.81403,-3.35388 1.76218,0.0344 3.34788,-0.93121 4.03283,-3.15822 1.0226,-0.92845 1.60453,-1.29372 2.08895,-1.76267 3.31762,-3.21168 6.55485,-6.62218 8.89775,-10.95286 0.87069,-1.78266 0.67945,-1.51507 1.30084,-2.68027 2.31955,0.65873 2.63903,-2.52159 2.7285,-4.00657 0.11013,-1.82795 0.99946,-4.05023 1.94186,-6.64195 1.51165,-5.14352 2.84112,-10.84075 2.53228,-17.64045 -1.0568,-23.26787 -14.09984,-39.74081 -30.67333,-48.25965 -0.0992,-0.0885 -0.19292,-0.1825 -0.30451,-0.25812 -0.38499,-0.26093 -0.78131,-0.40683 -1.15661,-0.4922 l -0.1602,-0.0795 c -0.65295,-3.99634 -2.08741,-8.03491 -3.92554,-10.81456 l -4.4e-4,-4.4e-4 c -1.03098,-1.55893 -2.23756,-2.44639 -3.07858,-3.25726 -0.8404,-0.81025 -1.12235,-1.4064 -1.10809,-1.3224 -0.0301,-0.17462 0.0565,-0.64822 0.54589,-1.78495 0.48935,-1.13675 1.33101,-2.82932 1.27257,-5.08474 -0.0673,-2.59226 -1.27072,-4.33266 -1.60544,-5.09976 -0.13121,-0.30073 -0.109,-0.2788 -0.1095,-0.2431 0.0224,-0.0265 0.0135,-0.0145 0.0799,-0.0919 1.71301,-1.99909 0.32456,-5.0897 -2.30765,-5.13671 -2.03314,-0.0359 -4.15856,0.9569 -5.20026,2.43091 -0.13805,0.19535 -0.22544,0.38658 -0.335,0.57981 0.0425,-0.37956 0.0911,-0.76025 0.14731,-1.22146 0.13997,-1.14979 0.25211,-2.78476 -0.42434,-4.4856 h -4.4e-4 c -0.69495,-1.74694 -1.9226,-2.59996 -2.52196,-3.09962 -0.2473,-0.20617 -0.33062,-0.29297 -0.39771,-0.35863 0.0139,-0.10937 0.0278,-0.24645 0.0924,-0.52912 0.1572,-0.68837 0.59798,-1.97404 -0.0215,-3.6846 -0.12375,-0.3418 -0.30651,-0.65928 -0.53987,-0.93802 -0.2922,-0.34906 -0.72981,-0.98057 -1.53671,-1.66168 -0.8069,-0.68112 -2.0818,-1.3178 -3.4647,-1.43708 -0.10338,-0.009 -0.20718,-0.0126 -0.31095,-0.0112 z m 20.8861,50.35126 c -0.033,0.33678 0.0593,-0.0319 0,0 z"
       id="path2131"
       inkscape:connector-curvature="0"
       sodipodi:nodetypes="cccccccccsccscccccccccccccccsccsccccccccscscccccccccccccccsccccc" /></g><g
     inkscape:groupmode="layer"
     id="layer1"
     inkscape:label="inner"
     style="display:inline"
     transform="translate(-28.606661,-14.674807)"><path
       style="display:inline;fill:#000000;fill-opacity:1;fill-rule:evenodd;stroke:none;stroke-width:0.90000004;stroke-miterlimit:4;stroke-dasharray:none;stroke-opacity:1"
       d="m 84.064894,17.731047 c -0.29613,1.331125 1.26086,0.808963 0.88703,2.217775 -0.88838,2.330638 -3.2432,3.231413 -3.10481,5.54445 0.0989,1.650125 1.97629,2.495375 1.99593,4.2141 0.0235,2.070863 -3.55482,5.7072 -5.54445,7.318913 -3.34218,2.7074 -8.81625,5.550149 -11.0897,8.649262 -2.35117,3.205838 -2.48222,8.06221 0.66557,10.202273 -1.78705,2.003424 -4.76533,2.879962 -5.76631,5.544849 -2.09754,5.584551 1.06318,10.528438 3.32667,14.859277 1.98642,3.80045 4.56393,8.53006 7.54077,9.75855 2.1943,0.9054 6.51517,1.04909 9.09297,1.1089 5.95458,0.1375 13.74684,-0.0941 17.52119,-3.32668 1.741596,-1.88995 2.645446,-5.55582 1.330746,-8.649659 1.93569,-3.205838 4.82962,-4.849313 5.10114,-8.871112 0.27647,-4.092763 -1.79335,-10.5392 -3.77039,-13.528936 -1.22763,-1.85625 -4.267856,-3.5119 -4.657826,-5.766312 -0.42631,-2.466963 1.8463,-4.5479 1.77447,-7.318913 -0.0817,-3.156287 -3.21414,-4.826337 -0.88703,-7.540775 -5.27846,-0.09325 -2.09077,7.228338 -5.323,8.871125 -0.4914,-2.232412 -3.12982,-4.366787 -3.32626,-7.097062 -0.1941,-2.693612 0.79926,-4.421887 0,-6.431475 -0.63624,-1.5994 -2.65691,-2.102088 -3.10521,-3.770388 -0.36592,-1.361312 0.65315,-2.801275 0.22186,-3.992237 -0.74121,-0.885463 -1.3857,-1.866925 -2.88336,-1.995925 z m 8.87112,35.928985 c 2.0864,1.2373 2.59979,6.573988 -0.44331,7.097063 -1.15873,-2.559038 -1.34433,-5.0734 0.44331,-7.097063 z m -22.1782,8.4278 c 2.34001,0.90745 0.99281,4.159975 3.32668,5.101138 -2.30573,1.167225 -4.31915,-2.194063 -3.32668,-5.101138 z m 10.42413,0 c 1.50176,3.260963 6.67116,3.550425 8.64966,6.65335 1.36747,2.14445 1.89807,5.674175 1.10849,7.762624 -0.84383,2.23124 -3.9301,2.66895 -5.10114,4.65741 -6.72949,2.06794 -8.87728,-3.67672 -8.87111,-9.758546 0.93677,-0.005 1.4323,0.42925 2.21777,0 0.77375,-2.763688 -0.60082,-7.122 1.99633,-9.314838 z m 26.926606,2.875313 c -0.0285,8.25e-4 -0.0588,0.0025 -0.091,0.0075 0.26505,4.9228 -2.2225,7.0931 -3.99225,9.980812 13.52115,7.170749 26.06025,24.044089 21.06971,44.578253 3.46649,-1.71815 5.38035,1.62928 5.32259,4.87968 2.77512,0.25596 3.60632,2.45626 4.87969,4.2137 1.58796,-5.27318 2.96513,-10.82647 2.66108,-17.52078 -1.01886,-22.434674 -13.51896,-37.901565 -29.49711,-45.909415 -0.0429,-0.151363 -0.15319,-0.235425 -0.35271,-0.2299 z m -48.883746,1.116937 c -14.937299,8.863975 -27.572917,24.151924 -27.500791,46.574578 0.05805,18.12201 8.625454,32.1643 19.738559,41.25199 11.206932,9.16451 28.421292,14.72974 47.461602,9.75855 4.379516,-10.97413 1.811696,-27.65256 -5.76631,-33.2679 -14.97775,1.2329 -29.80682,-2.95949 -38.368219,-11.53261 -1.363375,-1.36514 -2.642113,-2.95458 -3.896415,-4.75365 -0.784895,-1.12589 -1.150586,-2.1894 -1.648438,-3.23084 -1.600279,-3.34569 -2.345705,-8.14226 -1.995921,-11.754484 1.08249,-11.18728 8.246001,-17.90278 15.746313,-22.84377 -2.2676,-2.389564 -2.53778,-6.776714 -3.77038,-10.201864 z m 22.82081,0.465063 c -0.002,0.04237 -0.0113,0.057 -0.0138,0.100625 -0.0674,1.481312 0.1797,3.349662 -0.40546,5.43975 a 2.5345179,2.5345179 0 0 1 -1.22566,1.540537 c -0.22693,0.124 -0.4711,0.219213 -0.71913,0.2907 0.18509,1.386888 0.50331,2.618109 0.94985,3.448279 0.70366,1.30821 1.20893,1.75301 2.78954,1.6879 0.26472,-0.0113 0.64452,-0.11538 0.98326,-0.18483 0.93431,-1.05725 2.01493,-1.62714 2.7694,-2.09657 0.96723,-0.60182 1.31676,-0.953516 1.39639,-1.164054 h -4.1e-4 c 0.32257,-0.853237 -0.0252,-4.171262 -0.87495,-5.503787 -0.47059,-0.738013 -1.74267,-1.480188 -3.50465,-2.36555 -0.66369,-0.333488 -1.40732,-0.730025 -2.14449,-1.193038 z m 20.371526,15.803891 c -0.27927,0.005 -0.55732,0.0505 -0.83107,0.14293 -1.11181,1.17192 0.41292,1.80997 0.22145,3.32668 -4.589426,2.3148 -11.878166,3.23275 -18.629656,3.10521 -5.50187,-0.10375 -11.86427,-0.53425 -15.08155,-3.32667 -0.10737,-1.29037 1.06873,-1.29744 0.66558,-2.88335 -3.26799,-1.58093 -6.91918,3.08657 -6.43188,6.21002 0.12901,0.82681 1.40591,1.6865 1.77446,2.66109 0.10963,0.29027 0.4008,1.58605 0.44332,2.21819 0.3366,4.99668 -0.30463,10.896124 0,14.859284 3.17738,2.37725 7.87497,5.18843 12.6415,6.43188 10.74485,2.80269 22.63352,-1.60085 28.166766,-6.8752 0.75996,-1.14669 -0.13917,-2.90918 -0.22186,-4.65781 -0.0636,-1.34813 0.35791,-3.36667 0.44412,-5.322594 0.0765,-1.74219 -0.31491,-3.43244 -0.22226,-4.65743 0.1897,-2.50332 2.03394,-3.4385 2.21778,-4.87927 0.33346,-2.60928 -2.45722,-6.39883 -5.1567,-6.35296 z m 19.14747,16.76863 c -4.19355,-0.058 -2.97705,7.285454 -1.12701,9.544754 1.63869,-1.02238 2.14264,-3.18008 3.54852,-4.43556 -0.56851,-1.8709 -0.54478,-4.334424 -2.21777,-5.101144 -0.0694,-0.005 -0.13718,-0.007 -0.20374,-0.007 z m -6.89775,5.959584 c -0.17166,-0.005 -0.3422,0.002 -0.43969,0.0366 -2.73407,0.97402 0.88432,3.10835 1.33115,3.77039 0.7072,1.04701 0.7688,3.16416 1.77447,4.65743 1.23612,1.83571 2.91405,2.57052 4.43516,3.54892 -1.76154,-3.46237 -2.39921,-11.3745 -6.65294,-11.97674 -0.10337,-0.0145 -0.27647,-0.0316 -0.44815,-0.0366 z m 9.31926,1.14552 c -1.57007,2.1902 -3.9273,8.27852 -0.22185,9.98082 0.73798,-2.74727 1.56765,-6.55098 0.88743,-9.98082 z m -7.29193,9.85439 c -0.36449,0.006 -0.74125,0.10725 -1.13587,0.34789 -0.34303,0.32251 -0.19517,1.13559 -0.22186,1.77446 -6.32986,1.66976 -4.87685,11.62431 0.88744,12.86336 1.52845,-1.49795 4.07357,-1.39622 6.43147,-0.66557 0.828,-0.65003 1.30847,-1.64809 1.77407,-2.66109 -2.30542,-1.61319 -4.00539,-4.8454 -1.10889,-7.09746 -0.95611,-1.55718 -2.80595,-2.22071 -4.87888,-2.6611 v -1.33074 c -0.56641,-0.3227 -1.14,-0.57927 -1.74748,-0.56975 z m -41.278966,0.7916 c -0.185,3.80749 0.54575,6.69923 0.44373,10.42373 4.32907,2.36758 13.23276,2.47607 18.18635,0.66557 -0.0724,-4.02062 0.44656,-8.0242 0.66557,-11.0893 -4.82546,2.88919 -14.50947,2.85899 -19.29565,0 z m 51.402726,3.92139 c -1.59646,-0.0509 -2.96276,1.70716 -3.4974,3.17567 1.70114,1.40413 2.23131,3.97827 5.10114,4.2137 0.0817,-2.33063 0.53782,-4.92806 -0.22187,-6.8752 -0.46986,-0.3439 -0.93487,-0.49993 -1.38187,-0.51417 z m -22.09324,1.72534 c -1.79614,0.0304 -3.53046,1.73165 -3.13904,4.11182 2.14445,1.92984 5.24138,-0.31924 4.87928,-3.54852 -0.53598,-0.39794 -1.14154,-0.57343 -1.74024,-0.5633 z m 4.60225,2.45413 c -2.00724,4.2e-4 -2.13752,3.09959 -3.52719,4.09734 0.49463,1.57535 2.39175,1.74788 3.10482,3.1048 1.16546,-0.31314 1.4153,-1.54192 2.88335,-1.5522 -0.0856,-2.35409 -1.24202,-3.6373 -1.77447,-5.54485 -0.25128,-0.072 -0.47886,-0.10512 -0.68651,-0.10512 z m 21.31291,1.43544 c -0.27855,1.58914 -0.62827,3.79033 -3.10522,3.77038 -1.02414,-0.0113 -0.80641,-1.26329 -1.99591,-1.10848 -2.23829,4.87325 3.7367,6.96796 7.54036,7.98449 1.11915,-3.15893 1.33012,-10.2582 -2.43923,-10.64639 z m -31.871516,1.67299 c -1.08566,-0.0129 -2.16293,0.29281 -2.94859,0.98891 0.51251,1.11326 1.24514,2.00708 2.21739,2.66149 1.11855,-1.02561 3.839786,-0.44863 4.657806,-1.77446 -0.73551,-1.1575 -2.33987,-1.85712 -3.926606,-1.87594 z m 4.711366,2.92725 c -1.96807,0.0203 -3.784606,1.21895 -3.889966,2.71907 -0.0466,0.66117 0.968936,1.89869 1.330746,2.88295 1.03675,2.82145 0.70986,5.47058 2.21777,6.21003 2.00754,-0.42983 2.91152,-0.14406 3.99225,-0.88704 4.00128,-2.75079 0.94487,-9.56671 -1.99592,-10.64597 -0.54055,-0.19832 -1.10381,-0.28473 -1.65488,-0.27904 z m 15.90294,0.53029 c -1.2032,-0.006 -2.59114,0.91656 -2.49359,2.18878 1.19537,0.83189 3.35178,0.29199 3.99184,-1.33075 -0.28855,-0.59636 -0.868,-0.85475 -1.49825,-0.85803 z m -5.92615,0.60276 c -1.61655,-0.0264 -2.67301,1.28457 -3.6645,2.02974 0.64445,1.35165 1.08114,2.91053 0.88704,5.10073 2.31627,-0.32017 3.18926,0.80309 4.2137,1.77447 2.00695,-0.7025 3.94335,-3.44438 1.99592,-5.54485 -0.62832,-0.38234 -1.76928,-0.49688 -1.99592,-0.66518 0.0686,-1.20739 0.32477,-1.61311 -0.22145,-2.43964 -0.43876,-0.1719 -0.84174,-0.24918 -1.21479,-0.25527 z m 8.97701,0.0334 c -0.14865,1.7847 -1.07793,3.10815 -3.10481,3.54854 0.7154,3.2158 -0.6529,5.70504 -3.10521,6.43188 0.17739,1.52287 1.83817,1.5627 1.5526,3.54852 2.56021,0.32311 3.59994,2.16671 3.32667,5.323 4.02357,-3.44362 7.42792,-7.50595 9.75855,-12.64191 -3.46413,-1.19331 -6.48768,-2.82739 -7.76222,-6.21003 z m -11.12956,8.79704 c -1.39544,0.0381 -2.08697,1.54526 -1.06862,2.73558 1.13966,1.3323 3.80818,0.30373 2.66148,-2.21778 -0.58433,-0.37991 -1.12772,-0.53049 -1.59286,-0.5178 z m -4.15612,2.52098 c -0.63588,0.0162 -1.2776,0.2521 -1.56993,0.65832 -0.68931,3.05513 3.81329,3.13781 3.10521,0 -0.26915,-0.47146 -0.89941,-0.67464 -1.53528,-0.65832 z m 7.515,0.91521 c -0.38012,-0.001 -0.8223,0.1195 -1.32229,0.40869 -0.5996,1.71022 0.007,3.06082 1.33075,3.10481 2.28337,0.0757 2.04417,-3.50466 -0.009,-3.5135 z m -4.42027,1.32471 c -2.0407,0.1125 -2.18383,4.31608 0.43648,3.74139 1.07076,-0.23485 1.62765,-2.07236 0.88702,-3.32666 -0.50255,-0.31607 -0.94558,-0.43558 -1.3235,-0.41473 z m -6.43872,0.63618 c -0.41106,0.47615 -0.15013,1.62455 -0.22226,2.43963 0.7846,0.27678 2.74946,0.58385 2.6615,-0.66517 -1.18745,-0.21668 -1.14124,-1.66774 -2.43924,-1.77446 z m 14.38697,1.34806 c -0.91293,-0.0505 -1.9562,0.95635 -1.52361,2.20087 0.33103,0.9523 1.7992,1.21715 2.6615,0.22145 0.20358,-1.70425 -0.42782,-2.38302 -1.13789,-2.42232 z m -4.20605,1.7487 c -1.16943,0.0302 -2.18665,1.04437 -1.53126,2.44809 1.22353,1.56363 4.20616,0.25057 2.88295,-1.99592 -0.41305,-0.32498 -0.89407,-0.46402 -1.35169,-0.45217 z m -7.74168,0.89549 c -0.54124,0.41956 -1.44559,0.47626 -2.43924,0.44371 -1.22118,3.89807 4.27965,1.90421 2.43924,-0.44371 z m 3.80501,0.86608 c -0.9103,-0.005 -1.52233,0.28913 -2.03055,0.68652 -0.48554,3.91097 4.85501,1.50937 2.43964,-0.66558 -0.14279,-0.0135 -0.27905,-0.0203 -0.40909,-0.021 z m 7.49567,1.09964 c -1.03313,-0.009 -2.02496,0.6839 -1.98545,1.80466 0.64827,2.28343 4.68829,1.70913 3.32668,-1.33075 -0.39363,-0.32032 -0.87161,-0.46971 -1.34123,-0.47391 z m -11.07882,2.02611 c -0.60429,0.69108 -2.17889,0.43073 -3.10481,0.22227 0.36708,3.1038 -0.52385,6.12785 -0.66518,7.98408 2.65374,-1.1165 5.3145,-2.22591 7.76183,-3.54852 -0.23514,-1.09539 -1.12882,-1.5325 -0.88663,-3.10521 -1.47097,-0.0813 -2.29041,-0.81463 -3.10521,-1.55262 z m 6.93439,0.36722 c -0.3486,-0.0186 -0.73994,0.0687 -1.16769,0.29836 -2.17201,1.16605 0.20566,4.1405 1.99592,3.54852 1.68422,-0.55686 1.05417,-3.74642 -0.82823,-3.84688 z"
       id="path22"
       inkscape:connector-curvature="0" /></g></svg>